<svg xmlns="http://www.w3.org/2000/svg" viewBox="0 0 112.198 112.198"><circle cx="56.099" cy="56.1" r="56.098" fill="#04cc47"/><g fill="#fff"><path d="M84.66 53.989c-2.056-7.024-7.104-12.998-13.415-16.617-7.209-4.147-16.257-4.569-24.002-1.701-3.918 1.567-7.457 4.018-10.365 7.071-.05-6.283-.004-12.569-.027-18.855.009-1.222-.74-2.438-1.89-2.894a5.558 5.558 0 0 0-4.197.039c-1.11.48-1.801 1.662-1.821 2.851-.06 6.386.089 12.773.05 19.158-.039 6.916.089 13.827.057 20.744.159 3.9 1.037 7.789 2.664 11.343 2.881 6.15 8.017 11.219 14.215 13.994 5.22 2.222 11.093 3.122 16.691 1.982 6.854-1.198 13.142-5.082 17.369-10.593 3.991-5.12 5.963-11.635 6.033-18.086a32.851 32.851 0 0 0-1.362-8.436zM77.89 65.82a20.808 20.808 0 0 1-6.213 12.039c-2.92 2.928-6.792 4.866-10.877 5.501-4.71.78-9.694-.168-13.785-2.637-2.158-1.324-4.057-3.054-5.662-5.009-5.661-6.973-6.001-17.743-.752-25.034 1.691-2.241 3.679-4.303 6.088-5.777 2.545-1.603 5.467-2.568 8.451-2.915 4.979-.582 10.204.661 14.274 3.624 3.047 2.286 5.579 5.326 7.077 8.844 1.459 3.569 2.04 7.545 1.399 11.364z"/><path d="M45.914 56.498c-1.964.042-4.052.926-5.066 2.686-.665 1.183-1.07 2.579-.848 3.94.27 1.497.91 3.006 2.145 3.954 1.671 1.281 4.041 1.687 5.979.774 1.951-.763 3.122-2.743 3.401-4.751.214-1.501-.24-3.064-1.098-4.297-1.002-1.459-2.784-2.226-4.513-2.306z"/></g></svg>