<svg xmlns="http://www.w3.org/2000/svg" viewBox="0 0 112.196 112.196"><circle cx="56.098" cy="56.098" r="56.098" fill="#f26798"/><path d="M56.097 20.472c-19.669 0-35.671 15.983-35.671 35.627 0 19.644 16.002 35.626 35.671 35.626 19.67 0 35.673-15.981 35.673-35.626 0-19.644-16.003-35.627-35.673-35.627zM79.57 37.287a29.915 29.915 0 0 1 6.656 18.352c-1.354-.278-7.088-1.347-13.94-1.347-2.211 0-4.538.111-6.871.399a93.524 93.524 0 0 0-2.533-5.664c10.546-4.345 15.633-10.375 16.688-11.74zM56.097 26.049c7.601 0 14.549 2.824 19.856 7.475-.84 1.146-5.396 6.841-15.565 10.683-4.707-8.604-9.859-15.729-11.085-17.383a30.083 30.083 0 0 1 6.794-.775zm-12.945 2.92c1.039 1.431 6.199 8.632 11.027 17.167-12.957 3.406-24.463 3.628-27.24 3.628h-.295c1.995-9.194 8.207-16.834 16.508-20.795zM25.96 56.146c0-.248.004-.496.012-.743.18.002.446.002.791.002 3.74 0 16.722-.309 30.1-4.279a101.12 101.12 0 0 1 2.304 4.811c-.338.097-.671.194-1.002.302-15.063 4.865-23.342 17.744-24.616 19.849-4.72-5.318-7.589-12.3-7.589-19.942zm30.137 30.095a30.012 30.012 0 0 1-18.381-6.266c.861-1.688 7.11-12.939 23.617-18.684a.255.255 0 0 1 .033-.011c4.139 10.776 5.892 19.82 6.373 22.623a29.97 29.97 0 0 1-11.642 2.338zm17.07-5.305c-.404-2.319-2.028-10.795-5.776-21.133a39.518 39.518 0 0 1 6.065-.456c6.299 0 11.226 1.379 12.371 1.729-1.361 8.209-6.061 15.313-12.66 19.86z" fill="#f1f2f2"/></svg>