<svg xmlns="http://www.w3.org/2000/svg" viewBox="0 0 112.195 112.195"><path d="M56.101 112.192c30.976 0 56.095-25.115 56.095-56.096 0-30.978-25.119-56.093-56.095-56.093C25.116.003 0 25.119 0 56.096c0 30.981 25.116 56.096 56.101 56.096" fill="#ff0084"/><path d="M84.246 56.096c0 6.849-5.547 12.401-12.396 12.401-6.859 0-12.406-5.553-12.406-12.401 0-6.847 5.547-12.4 12.406-12.4 6.849 0 12.396 5.554 12.396 12.4zm-31.497 0c0 6.849-5.547 12.401-12.406 12.401-6.847 0-12.394-5.553-12.394-12.401 0-6.847 5.547-12.4 12.394-12.4 6.859 0 12.406 5.554 12.406 12.4z" fill="#f1f2f2"/></svg>