<svg xmlns="http://www.w3.org/2000/svg" viewBox="0 0 112.196 112.196"><circle cx="56.098" cy="56.098" r="56.098" fill="#f3923c"/><g fill="#f1f2f2"><path d="M46.916 79.438c-1.917-4.367-2.982-9.053-3.089-13.739-3.088 4.793-5.432 9.692-7.029 13.207-.106.213-.106.32-.213.533-.532 1.385-1.065 2.45-1.385 3.408-.426 1.065.106 2.343 1.278 2.769.852.32 2.023.746 3.408 1.278.214.106.32.106.533.212 3.729 1.278 8.84 2.663 14.379 3.621-3.302-3.195-5.965-7.029-7.882-11.289m7.455-35.041c-10.863-22.259-35.146-21.514-38.98-11.502-2.982 7.668 9.905 25.881 39.514 12.674-.107-.106-.426-.958-.534-1.172m5.113-1.49c-6.07-15.018 4.58-23.645 10.331-21.408 4.367 1.704 6.71 14.591-10.011 22.046 0-.106-.214-.532-.32-.638m31.099 16.934c-2.556-5.645-7.136-9.798-12.567-11.715a4.41 4.41 0 0 0-1.704-.32c-2.769 0-5.538 2.343-5.751 5.219-.426 4.899.532 9.799 2.662 14.591 2.131 4.687 5.112 8.627 8.84 11.609.959.746 2.237 1.065 3.408 1.065 2.237 0 4.367-1.171 5.219-3.195 2.343-5.219 2.45-11.503-.107-17.254"/><path d="M77.909 84.87c-4.687-3.621-8.414-8.413-10.97-14.271-2.663-5.964-3.728-12.035-3.195-17.999.106-1.704.639-3.302 1.385-4.686-.106 0-.319.106-.427.106-.213.106-.532.106-.745.213-1.598.426-3.195 1.171-4.58 1.917-.745.426-1.384.852-2.13 1.278-3.621 2.449-6.603 6.709-7.029 11.183-.426 4.792.426 9.692 2.449 14.378a29.25 29.25 0 0 0 8.628 11.183c2.236 1.811 6.177 2.876 9.479 2.876 3.621 0 7.455-1.385 10.544-3.302 0 0 .106 0 .106-.106.213-.107.426-.32.639-.426.107-.108.214-.214.32-.214a12.462 12.462 0 0 1-4.474-2.13"/></g></svg>